<?xml version="1.0" encoding="utf-8"?>
<svg viewBox="0 0 500 500" xmlns="http://www.w3.org/2000/svg">
  <rect style="stroke: rgb(0, 0, 0); paint-order: stroke; fill: rgb(255, 215, 0); stroke-width: 0px;" width="500" height="500" rx="100.33" ry="100.33"/>
  <path d="M 322.605 253.369 C 316.585 253.369 312.573 251.775 308.558 248.586 L 208.228 168.878 C 200.201 162.499 200.201 152.937 208.228 146.558 C 216.255 140.18 228.294 140.18 236.32 146.558 L 336.651 226.268 C 344.678 232.643 344.678 242.209 336.651 248.586 C 332.638 251.775 328.625 253.369 322.605 253.369 Z" style="fill: rgb(28, 68, 132); transform-origin: 250.541px 276.782px;" transform="matrix(0, 1, -1, 0, -0.000015258789, -0.000005722046)"/>
  <path d="M 120.666 253.369 C 114.629 253.369 110.604 251.786 106.58 248.621 C 98.532 242.292 98.532 232.798 106.58 226.468 L 207.188 147.351 C 215.237 141.02 227.31 141.02 235.359 147.351 C 243.408 153.68 243.408 163.173 235.359 169.504 L 134.75 248.621 C 130.725 251.786 126.701 253.369 120.666 253.369 Z" style="fill: rgb(28, 68, 132); transform-origin: 250.541px 276.782px;" transform="matrix(0, 1, -1, 0, -0.000015258789, -0.000005722046)"/>
  <path d="M 221.608 426.779 C 209.502 426.779 201.43 420.474 201.43 411.015 L 201.43 158.782 C 201.43 149.323 209.502 143.016 221.608 143.016 C 233.714 143.016 241.785 149.323 241.785 158.782 L 241.785 411.015 C 241.785 420.474 233.714 426.779 221.608 426.779 Z" style="fill: rgb(28, 68, 132); transform-origin: 250.541px 276.782px;" transform="matrix(0, 1, -1, 0, -0.000015258789, -0.000005722046)"/>
</svg>